<?xml version="1.0" encoding="UTF-8" standalone="no"?>
<!-- Created with Inkscape (http://www.inkscape.org/) -->

<svg
   width="64"
   height="50"
   viewBox="0 0 16.933333 13.229167"
   version="1.1"
   id="svg1"
   xmlns:xlink="http://www.w3.org/1999/xlink"
   xmlns="http://www.w3.org/2000/svg"
   xmlns:svg="http://www.w3.org/2000/svg">
  <defs
     id="defs1">
    <linearGradient
       id="linearGradient9">
      <stop
         style="stop-color:#000000;stop-opacity:1;"
         offset="0"
         id="stop9" />
      <stop
         style="stop-color:#000000;stop-opacity:0;"
         offset="1"
         id="stop10" />
    </linearGradient>
    <linearGradient
       id="linearGradient15">
      <stop
         style="stop-color:#ffffff;stop-opacity:1;"
         offset="0"
         id="stop14" />
      <stop
         style="stop-color:#ffffff;stop-opacity:0;"
         offset="1"
         id="stop15" />
    </linearGradient>
    <linearGradient
       id="linearGradient24">
      <stop
         style="stop-color:#ffffff;stop-opacity:1;"
         offset="0.71309769"
         id="stop23" />
      <stop
         style="stop-color:#ffffff;stop-opacity:0;"
         offset="1"
         id="stop24" />
    </linearGradient>
    <linearGradient
       id="linearGradient20">
      <stop
         style="stop-color:#000000;stop-opacity:1;"
         offset="0.71309769"
         id="stop20" />
      <stop
         style="stop-color:#000000;stop-opacity:0;"
         offset="1"
         id="stop21" />
    </linearGradient>
    <linearGradient
       id="linearGradient31">
      <stop
         style="stop-color:#ffffff;stop-opacity:1;"
         offset="0"
         id="stop22" />
      <stop
         style="stop-color:#000000;stop-opacity:1;"
         offset="0.40228692"
         id="stop25" />
      <stop
         style="stop-color:#000000;stop-opacity:1;"
         offset="0.60031188"
         id="stop26" />
      <stop
         style="stop-color:#ffffff;stop-opacity:1;"
         offset="1"
         id="stop31" />
    </linearGradient>
    <linearGradient
       xlink:href="#linearGradient9"
       id="linearGradient13-7-0"
       gradientUnits="userSpaceOnUse"
       x1="112.62984"
       y1="47.007736"
       x2="112.62984"
       y2="42.603806" />
    <linearGradient
       xlink:href="#linearGradient15"
       id="linearGradient19-6-7"
       gradientUnits="userSpaceOnUse"
       x1="112.62984"
       y1="47.007736"
       x2="112.62984"
       y2="51.411674" />
    <radialGradient
       xlink:href="#linearGradient24"
       id="radialGradient21-3-7-7-5-4-7"
       cx="112.62984"
       cy="28.903465"
       fx="112.62984"
       fy="28.903465"
       r="21.42416"
       gradientTransform="matrix(1.1157142,0,0,0.36946892,-13.032862,54.433085)"
       gradientUnits="userSpaceOnUse" />
    <linearGradient
       xlink:href="#linearGradient31"
       id="linearGradient21-9-5"
       gradientUnits="userSpaceOnUse"
       gradientTransform="translate(6.6454183,-28.016188)"
       x1="127.40859"
       y1="75.023918"
       x2="84.560394"
       y2="75.539375" />
    <radialGradient
       xlink:href="#linearGradient20"
       id="radialGradient21-3-2-6-2-8-7-8"
       cx="112.62984"
       cy="28.903465"
       fx="112.62984"
       fy="28.903465"
       r="21.42416"
       gradientTransform="matrix(1.1157142,0,0,0.36946892,-13.032862,18.223973)"
       gradientUnits="userSpaceOnUse" />
  </defs>
  <g
     id="layer1">
    <g
       id="g23-6-7-6-0-3"
       transform="matrix(0.34459978,0,0,0.34588684,-30.345541,-9.6448835)"
       style="display:inline;stroke-width:2">
      <g
         id="g34-0-6-0-1-8"
         style="stroke-width:2">
        <path
           id="rect6-3-5-5-1-6-6-0"
           style="opacity:1;fill:none;fill-opacity:1;stroke:#48c2ff;stroke-width:1.97987;stroke-dasharray:none;stroke-opacity:1"
           d="m 95.123797,29.508545 c -1.700618,0.916138 -3.446216,2.631789 -3.446216,5.915638 v 1.368565 4.597202 c 0,2.805687 -1.040537,4.276499 -3.122149,4.412695 v 0.04083 2.328834 0.04083 c 2.081612,0.136196 3.122149,1.607524 3.122149,4.413211 v 4.425614 1.539637 c 0,3.28359 1.745724,4.999307 3.446216,5.915638 a 17.668533,4.4882671 0 0 1 1.021814,-1.008852 h 5.1e-4 a 17.668533,4.4882671 0 0 1 0.895227,-0.488921 17.668533,4.4882671 0 0 1 0.286083,-0.128693 17.668533,4.4882671 0 0 1 15.302379,-2.254927 17.668533,4.4882671 0 0 1 15.07199,2.150011 17.668533,4.4882671 0 0 1 0.17116,0.07494 17.668533,4.4882671 0 0 1 0.94587,0.465664 17.668533,4.4882671 0 0 1 1.317,1.190777 c 1.70049,-0.916335 3.44622,-2.632067 3.44622,-5.915638 v -1.539637 -4.425614 c 0,-2.805687 1.04053,-4.277015 3.12214,-4.413211 v -0.04083 -2.328835 -0.04083 c -2.08161,-0.136196 -3.12214,-1.607008 -3.12214,-4.412695 v -4.597202 -1.368565 c 0,-3.283851 -1.74559,-4.999502 -3.44622,-5.915638 a 17.668533,4.4882671 0 0 1 -1.06638,1.037278 h -5e-4 a 17.668533,4.4882671 0 0 1 -0.89826,0.48272 17.668533,4.4882671 0 0 1 -0.27443,0.122487 17.668533,4.4882671 0 0 1 -15.26645,2.237875 17.668533,4.4882671 0 0 1 -15.530232,-2.363462 17.668533,4.4882671 0 0 1 -0.337234,-0.155567 17.668533,4.4882671 0 0 1 -0.882566,-0.541121 l -5.1e-4,5.16e-4 a 17.668533,4.4882671 0 0 1 -0.755471,-0.820726 z" />
        <path
           id="rect6-2-8-6-5-1"
           style="fill:#003074;fill-opacity:1;stroke-width:5.9138"
           d="m 95.535254,30.330965 -2.627747,2.529562 -0.519348,4.839497 -0.454236,7.10551 -0.728121,-0.08372 v 5.602759 l 1.290878,0.01395 0.226859,8.007264 0.551905,3.116605 2.531111,2.033985 h 5.17e-4 a 18.031952,4.4876966 0 0 1 16.822748,-2.872176 18.031952,4.4876966 0 0 1 16.52199,2.690275 l 2.2133,-1.289327 0.90899,-3.41943 -0.0434,-8.180896 1.82314,-2.056205 v -3.56309 l -1.51773,-8.508525 0.71933,-0.543119 -1.00717,-1.383378 -1.16324,-2.815849 L 129.4071,30.548 a 18.031952,4.4876966 0 0 1 -16.77727,2.842721 18.031952,4.4876966 0 0 1 -17.094566,-3.059762 z" />
        <rect
           style="opacity:0.5338;fill:url(#linearGradient13-7-0);fill-opacity:1;stroke:none;stroke-width:12.5057;stroke-dasharray:none"
           id="rect7-4-9-1-7-2"
           width="42.848309"
           height="4.4039326"
           x="91.205688"
           y="42.603806" />
        <rect
           style="opacity:0.5338;fill:url(#linearGradient19-6-7);fill-opacity:1;stroke:none;stroke-width:12.5057;stroke-dasharray:none"
           id="rect7-8-8-2-8-5-5"
           width="42.848309"
           height="4.4039326"
           x="91.205688"
           y="47.00774" />
        <path
           id="path19-8-6-6-7-4-4-0"
           style="opacity:0.51049;fill:url(#radialGradient21-3-7-7-5-4-7);stroke-width:10.0508"
           d="m 112.62982,57.196509 a 23.90324,7.9155612 0 0 0 -19.517157,3.345532 l 0.162781,0.920357 2.531111,2.033985 h 5.17e-4 a 18.031952,4.4876966 0 0 1 16.822748,-2.872176 18.031952,4.4876966 0 0 1 16.52199,2.690275 l 2.2133,-1.289327 0.43615,-1.641244 a 23.90324,7.9155612 0 0 0 -19.17144,-3.187402 z" />
        <path
           id="rect6-3-5-9-9-1-9"
           style="opacity:0.282087;fill:url(#linearGradient21-9-5);fill-opacity:1;stroke-width:5.9138"
           d="m 94.763724,29.510854 c -1.7356,0.916021 -3.5171,2.631454 -3.5171,5.914885 v 1.368392 4.596618 c 0,2.80533 -1.06194,4.275954 -3.18637,4.412134 v 0.04082 2.32854 0.04082 c 2.12443,0.13618 3.18637,1.60732 3.18637,4.41265 v 4.425053 1.539441 c 0,3.283173 1.78163,4.998671 3.5171,5.914885 a 18.031952,4.4876966 0 0 1 1.04283,-1.008724 h 5.2e-4 a 18.031952,4.4876966 0 0 1 0.913643,-0.488859 18.031952,4.4876966 0 0 1 0.29197,-0.128675 18.031952,4.4876966 0 0 1 15.617133,-2.254642 18.031952,4.4876966 0 0 1 15.38201,2.149739 18.031952,4.4876966 0 0 1 0.17467,0.07493 18.031952,4.4876966 0 0 1 0.96531,0.465605 18.031952,4.4876966 0 0 1 1.34411,1.190625 c 1.73546,-0.916218 3.5171,-2.631731 3.5171,-5.914885 v -1.539441 -4.425053 c 0,-2.80533 1.06193,-4.27647 3.18636,-4.41265 v -0.04082 -2.328541 -0.04082 c -2.12443,-0.13618 -3.18636,-1.606804 -3.18636,-4.412134 v -4.596616 -1.368392 c 0,-3.283433 -1.7815,-4.998866 -3.5171,-5.914885 A 18.031952,4.4876966 0 0 1 129.40761,30.548 h -5.1e-4 a 18.031952,4.4876966 0 0 1 -0.91674,0.482658 18.031952,4.4876966 0 0 1 -0.28009,0.122473 18.031952,4.4876966 0 0 1 -15.58045,2.23759 18.031952,4.4876966 0 0 1 -15.849673,-2.363163 18.031952,4.4876966 0 0 1 -0.34417,-0.155546 18.031952,4.4876966 0 0 1 -0.900723,-0.541053 l -5.2e-4,5.17e-4 a 18.031952,4.4876966 0 0 1 -0.77101,-0.820622 z" />
        <g
           id="text6-9-9-0-5-6-2-4"
           style="opacity:1;stroke-width:2"
           transform="scale(1.1041909,0.9056405)">
          <path
             style="font-weight:100;font-size:46.5678px;font-family:'Aeternus Nano';-inkscape-font-specification:'Aeternus Nano Thin';letter-spacing:2.2207px;baseline-shift:baseline;display:inline;overflow:visible;vector-effect:none;fill:#ffffff;stroke-width:2;enable-background:accumulate;stop-color:#000000;stop-opacity:1"
             d="m 94.984951,44.780888 c 0,-1.862712 -0.884789,-2.980339 -2.561229,-3.073474 V 39.65843 h -0.558814 v 2.048984 c -1.676441,0.09313 -2.561229,1.210762 -2.561229,3.073474 v 2.048983 c 0,2.654365 0.465678,3.585721 2.561229,5.262162 1.862712,1.490169 2.188687,2.188686 2.188687,4.563644 v 2.235254 c 0,1.536738 -0.791653,2.142119 -1.90928,2.142119 -1.117627,0 -1.90928,-0.605381 -1.90928,-2.142119 v -3.865127 h -0.931356 v 3.725424 c 0,1.862712 0.884788,2.980339 2.561229,3.073475 v 2.048983 h 0.558814 v -2.048983 c 1.67644,-0.09314 2.561229,-1.210763 2.561229,-3.073475 v -2.095551 c 0,-2.654365 -0.419111,-3.585721 -2.561229,-5.262161 -1.862712,-1.49017 -2.188687,-2.188687 -2.188687,-4.563645 v -2.188686 c 0,-1.536738 0.791653,-2.142119 1.90928,-2.142119 1.117627,0 1.90928,0.605381 1.90928,2.142119 v 3.865127 h 0.931356 z m 8.041639,19.372204 v -2.374957 c 1.53674,-0.186271 2.37496,-1.257331 2.37496,-3.026907 v -13.97034 c 0,-1.955847 -0.97793,-3.073474 -2.84064,-3.073474 -1.86271,0 -2.840634,1.117627 -2.840634,3.073474 v 13.97034 c 0,1.769576 0.838224,2.840636 2.374954,3.026907 v 2.374957 z m -0.46568,-3.120042 c -1.11763,0 -1.90928,-0.605381 -1.90928,-2.142119 V 44.641185 c 0,-1.536738 0.79165,-2.142119 1.90928,-2.142119 1.11763,0 1.90928,0.605381 1.90928,2.142119 v 14.249746 c 0,1.536738 -0.79165,2.142119 -1.90928,2.142119 z m 12.13968,0.512246 V 60.753643 H 110.6492 V 41.98682 h -0.93136 v 19.558476 z"
             id="path1" />
          <path
             style="font-weight:100;font-size:46.5678px;font-family:'Aeternus Nano';-inkscape-font-specification:'Aeternus Nano Thin';letter-spacing:2.2207px;baseline-shift:baseline;display:inline;overflow:visible;vector-effect:none;fill:#ffffff;stroke-width:2;enable-background:accumulate;stop-color:#000000;stop-opacity:1"
             d="m 90.791016,38.583984 v 2.296875 c -0.647654,0.203916 -1.244603,0.507424 -1.664063,1.017578 -0.633467,0.770434 -0.896484,1.781407 -0.896484,2.882813 v 2.048828 c 0,1.38999 0.119706,2.478801 0.603515,3.46875 0.48381,0.989949 1.266144,1.758228 2.359375,2.632813 0.891299,0.713038 1.290921,1.144874 1.496094,1.574218 0.205174,0.429345 0.291016,1.012049 0.291016,2.150391 v 2.234375 c 0,0.583945 -0.135088,0.799492 -0.228516,0.894531 -0.09343,0.09504 -0.242525,0.173828 -0.607422,0.173828 -0.364897,0 -0.513993,-0.07879 -0.607422,-0.173828 -0.09343,-0.09504 -0.228515,-0.310586 -0.228515,-0.894531 v -4.939453 h -3.078125 v 4.800781 c 0,1.101406 0.263017,2.110426 0.896484,2.880859 0.41946,0.510154 1.01641,0.813663 1.664063,1.017579 v 2.296875 h 2.707031 v -2.296875 c 0.647411,-0.203951 1.244729,-0.507579 1.664062,-1.017579 0.633468,-0.770432 0.896485,-1.779453 0.896485,-2.880859 V 56.65625 c 0,-1.383709 -0.105098,-2.469659 -0.583985,-3.464844 -0.477403,-0.992103 -1.266058,-1.763313 -2.380859,-2.636719 l -0.0078,-0.0078 C 92.204159,49.840302 91.803739,49.407629 91.599609,48.980469 91.394436,48.551124 91.308594,47.96842 91.308594,46.830078 v -2.189453 c 0,-0.583945 0.135087,-0.799492 0.228515,-0.894531 0.09343,-0.09504 0.242525,-0.173828 0.607422,-0.173828 0.364897,0 0.513994,0.07879 0.607422,0.173828 0.09343,0.09504 0.228516,0.310586 0.228516,0.894531 v 4.939453 h 3.078125 V 44.78125 c 0,-1.101406 -0.263017,-2.11238 -0.896485,-2.882813 -0.419333,-0.51 -1.01665,-0.813628 -1.664062,-1.017578 v -2.296875 z m 11.769534,2.048828 c -1.14616,0 -2.20565,0.378916 -2.912113,1.154297 -0.706458,0.775381 -1.001953,1.837217 -1.001953,2.994141 v 13.970703 c 0,1.054368 0.252718,2.020733 0.839844,2.769531 0.387591,0.49432 0.938222,0.806982 1.535152,1.033203 v 2.671875 h 3.08008 v -2.671875 c 0.59694,-0.226221 1.14561,-0.538883 1.53321,-1.033203 0.58712,-0.748799 0.83984,-1.715164 0.83984,-2.769531 V 44.78125 c 0,-1.156925 -0.29354,-2.21876 -1,-2.994141 -0.70646,-0.77538 -1.76791,-1.154297 -2.91406,-1.154297 z m 6.08398,0.279297 v 21.707032 h 7.13086 v -2.939454 h -4.05273 V 40.912109 Z m -6.08398,2.660157 c 0.3649,0 0.51399,0.07879 0.60742,0.173828 0.0934,0.09504 0.22851,0.310586 0.22851,0.894531 v 14.25 c 0,0.583945 -0.13508,0.799493 -0.22851,0.894531 -0.0934,0.09504 -0.24252,0.173828 -0.60742,0.173828 -0.3649,0 -0.514,-0.07879 -0.60742,-0.173828 -0.0934,-0.09504 -0.22657,-0.310586 -0.22657,-0.894531 v -14.25 c 0,-0.583945 0.13314,-0.799493 0.22657,-0.894531 0.0934,-0.09504 0.24252,-0.173828 0.60742,-0.173828 z"
             id="path2" />
        </g>
        <path
           id="path19-8-6-8-0-3-7-0-7"
           style="opacity:0.51049;fill:url(#radialGradient21-3-2-6-2-8-7-8);stroke-width:10.0508"
           d="m 95.535254,30.330965 -2.627746,2.529562 -0.05271,0.489375 a 23.90324,7.9155612 0 0 0 19.775032,3.468522 23.90324,7.9155612 0 0 0 19.29081,-3.241145 l -0.83562,-2.022616 -1.67793,-1.006657 a 18.031952,4.4876966 0 0 1 -16.77726,2.842721 18.031952,4.4876966 0 0 1 -17.094576,-3.059762 z" />
        <path
           id="text1-1-12-0-1-8-0-8"
           style="font-size:41.8348px;font-family:'Segoe UI';-inkscape-font-specification:'Segoe UI';fill:#48c2ff;fill-opacity:1;stroke-width:0.438308"
           d="m 130.49591,29.307241 a 18.031952,4.5399195 0 0 1 -2.62258,1.810903 c 2.30985,1.001628 3.11661,1.626421 3.11661,4.421133 v 1.135996 4.918817 0.123898 c 0,2.906857 1.02118,4.670047 3.06389,5.289988 -2.04271,0.619941 -3.06389,2.383655 -3.06389,5.290513 v 0.123897 4.745256 1.309558 c 0,2.794309 -0.80649,3.419234 -3.11557,4.42061 a 18.031952,4.5399195 0 0 1 2.62154,1.810903 c 1.73546,-0.92688 3.5171,-2.662356 3.5171,-5.983716 v -1.557355 -4.476547 c 0,-2.837975 1.06194,-4.326235 3.18637,-4.464 v -0.04131 -2.355637 -0.0413 c -2.12443,-0.137765 -3.18637,-1.625503 -3.18637,-4.463478 v -4.650108 -1.384316 c 0,-3.321642 -1.7815,-5.057037 -3.5171,-5.983715 z" />
        <path
           id="text1-1-12-9-6-2-8-1-3"
           style="font-size:41.8348px;font-family:'Segoe UI';-inkscape-font-specification:'Segoe UI';fill:#48c2ff;fill-opacity:1;stroke-width:0.438308"
           d="m 94.763725,29.307231 c -1.735599,0.926681 -3.517098,2.662076 -3.517098,5.983716 v 1.384316 4.650108 c 0,2.837975 -1.061939,4.325713 -3.186369,4.463478 v 0.0413 2.355637 0.04131 c 2.12443,0.137765 3.186369,1.626025 3.186369,4.464 v 4.476547 1.557355 c 0,3.321379 1.781628,5.05684 3.517098,5.983716 A 18.031952,4.5399195 0 0 1 97.38527,62.897811 C 95.076169,61.89643 94.269698,61.271517 94.269698,58.477201 V 57.167643 52.422387 52.29849 c 0,-2.906858 -1.021186,-4.670572 -3.063896,-5.290513 2.04271,-0.619941 3.063896,-2.383131 3.063896,-5.289988 v -0.123898 -4.918817 -1.135996 c 0,-2.79471 0.806756,-3.419506 3.116606,-4.421133 a 18.031952,4.5399195 0 0 1 -2.622579,-1.810914 z" />
      </g>
    </g>
  </g>
</svg>
