<?xml version="1.0" encoding="UTF-8" standalone="no"?>
<!-- Created with Inkscape (http://www.inkscape.org/) -->

<svg
   width="49.139mm"
   height="34.993999mm"
   viewBox="0 0 49.139 34.993999"
   version="1.1"
   id="svg1"
   inkscape:version="1.4.3 (0d15f75, 2025-12-25)"
   sodipodi:docname="SqlInterpol.svg"
   xmlns:inkscape="http://www.inkscape.org/namespaces/inkscape"
   xmlns:sodipodi="http://sodipodi.sourceforge.net/DTD/sodipodi-0.dtd"
   xmlns:xlink="http://www.w3.org/1999/xlink"
   xmlns="http://www.w3.org/2000/svg"
   xmlns:svg="http://www.w3.org/2000/svg">
  <sodipodi:namedview
     id="namedview1"
     pagecolor="#ffffff"
     bordercolor="#000000"
     borderopacity="0.25"
     inkscape:showpageshadow="2"
     inkscape:pageopacity="0.0"
     inkscape:pagecheckerboard="0"
     inkscape:deskcolor="#d1d1d1"
     inkscape:document-units="mm"
     inkscape:zoom="1.0806047"
     inkscape:cx="396.99995"
     inkscape:cy="508.5116"
     inkscape:window-width="2560"
     inkscape:window-height="1494"
     inkscape:window-x="-11"
     inkscape:window-y="-11"
     inkscape:window-maximized="1"
     inkscape:current-layer="layer1" />
  <defs
     id="defs1">
    <linearGradient
       inkscape:collect="always"
       xlink:href="#linearGradient9"
       id="linearGradient8"
       x1="112.62984"
       y1="47.007736"
       x2="112.62984"
       y2="42.603806"
       gradientUnits="userSpaceOnUse" />
    <linearGradient
       id="linearGradient9"
       inkscape:collect="always">
      <stop
         style="stop-color:#000000;stop-opacity:1;"
         offset="0"
         id="stop9" />
      <stop
         style="stop-color:#000000;stop-opacity:0;"
         offset="1"
         id="stop10" />
    </linearGradient>
    <linearGradient
       inkscape:collect="always"
       xlink:href="#linearGradient15"
       id="linearGradient14"
       x1="112.62984"
       y1="47.007736"
       x2="112.62984"
       y2="51.411674"
       gradientUnits="userSpaceOnUse" />
    <linearGradient
       id="linearGradient15"
       inkscape:collect="always">
      <stop
         style="stop-color:#ffffff;stop-opacity:1;"
         offset="0"
         id="stop14" />
      <stop
         style="stop-color:#ffffff;stop-opacity:0;"
         offset="1"
         id="stop15" />
    </linearGradient>
    <radialGradient
       inkscape:collect="always"
       xlink:href="#linearGradient24"
       id="radialGradient21-3"
       cx="112.62984"
       cy="28.903465"
       fx="112.62984"
       fy="28.903465"
       r="21.42416"
       gradientTransform="matrix(1.1157142,0,0,0.36946892,-13.032862,54.433085)"
       gradientUnits="userSpaceOnUse" />
    <linearGradient
       id="linearGradient24"
       inkscape:collect="always">
      <stop
         style="stop-color:#ffffff;stop-opacity:1;"
         offset="0.71309769"
         id="stop23" />
      <stop
         style="stop-color:#ffffff;stop-opacity:0;"
         offset="1"
         id="stop24" />
    </linearGradient>
    <linearGradient
       inkscape:collect="always"
       xlink:href="#linearGradient27"
       id="linearGradient26"
       x1="127.40859"
       y1="75.023918"
       x2="84.560394"
       y2="75.539375"
       gradientUnits="userSpaceOnUse"
       gradientTransform="translate(6.6454183,-28.016188)" />
    <linearGradient
       id="linearGradient27"
       inkscape:collect="always">
      <stop
         style="stop-color:#dce6f0;stop-opacity:1;"
         offset="0"
         id="stop27" />
      <stop
         style="stop-color:#000000;stop-opacity:1;"
         offset="0.40228692"
         id="stop29" />
      <stop
         style="stop-color:#000000;stop-opacity:1;"
         offset="0.60031188"
         id="stop30" />
      <stop
         style="stop-color:#dce6f0;stop-opacity:1;"
         offset="1"
         id="stop28" />
    </linearGradient>
    <radialGradient
       inkscape:collect="always"
       xlink:href="#linearGradient20"
       id="radialGradient21-3-2"
       cx="112.62984"
       cy="28.903465"
       fx="112.62984"
       fy="28.903465"
       r="21.42416"
       gradientTransform="matrix(1.1157142,0,0,0.36946892,-13.032862,18.223973)"
       gradientUnits="userSpaceOnUse" />
    <linearGradient
       id="linearGradient20"
       inkscape:collect="always">
      <stop
         style="stop-color:#000000;stop-opacity:1;"
         offset="0.71309769"
         id="stop20" />
      <stop
         style="stop-color:#000000;stop-opacity:0;"
         offset="1"
         id="stop21" />
    </linearGradient>
  </defs>
  <g
     inkscape:label="Layer 1"
     inkscape:groupmode="layer"
     id="layer1">
    <g
       id="g34"
       inkscape:export-filename="SqlInterpol.svg"
       inkscape:export-xdpi="96"
       inkscape:export-ydpi="96"
       transform="translate(-88.060254,-29.510854)">
      <path
         id="rect6"
         style="fill:#003074;fill-opacity:1;stroke-width:2.9569"
         d="m 95.535254,30.330965 -2.627747,2.529562 -0.519348,4.839497 -0.454236,7.10551 -0.728121,-0.08372 v 5.602759 l 1.290878,0.01395 0.226859,8.007264 0.551905,3.116605 2.531111,2.033985 h 5.17e-4 a 18.031952,4.4876966 0 0 1 16.822748,-2.872176 18.031952,4.4876966 0 0 1 16.52199,2.690275 l 2.2133,-1.289327 0.90899,-3.41943 -0.0434,-8.180896 1.82314,-2.056205 v -3.56309 l -1.51773,-8.508525 0.71933,-0.543119 -1.00717,-1.383378 -1.16324,-2.815849 L 129.4071,30.548 a 18.031952,4.4876966 0 0 1 -16.77727,2.842721 18.031952,4.4876966 0 0 1 -17.094566,-3.059762 z" />
      <rect
         style="opacity:0.5338;fill:url(#linearGradient8);fill-opacity:1;stroke:none;stroke-width:6.25284;stroke-dasharray:none"
         id="rect7"
         width="42.848309"
         height="4.4039326"
         x="91.205688"
         y="42.603806" />
      <rect
         style="opacity:0.5338;fill:url(#linearGradient14);fill-opacity:1;stroke:none;stroke-width:6.25284;stroke-dasharray:none"
         id="rect7-8"
         width="42.848309"
         height="4.4039326"
         x="91.205688"
         y="47.00774" />
      <path
         id="path19-8-6"
         style="opacity:0.51049;fill:url(#radialGradient21-3);stroke-width:5.02542"
         d="m 112.62982,57.196509 a 23.90324,7.9155612 0 0 0 -19.517157,3.345532 l 0.162781,0.920357 2.531111,2.033985 h 5.17e-4 a 18.031952,4.4876966 0 0 1 16.822748,-2.872176 18.031952,4.4876966 0 0 1 16.52199,2.690275 l 2.2133,-1.289327 0.43615,-1.641244 a 23.90324,7.9155612 0 0 0 -19.17144,-3.187402 z" />
      <path
         id="rect6-3"
         style="opacity:0.550117;fill:url(#linearGradient26);fill-opacity:1;stroke-width:2.9569"
         d="m 94.763724,29.510854 c -1.7356,0.916021 -3.5171,2.631454 -3.5171,5.914885 v 1.368392 4.596618 c 0,2.80533 -1.06194,4.275954 -3.18637,4.412134 v 0.04082 2.32854 0.04082 c 2.12443,0.13618 3.18637,1.60732 3.18637,4.41265 v 4.425053 1.539441 c 0,3.283173 1.78163,4.998671 3.5171,5.914885 a 18.031952,4.4876966 0 0 1 1.04283,-1.008724 h 5.2e-4 a 18.031952,4.4876966 0 0 1 0.913643,-0.488859 18.031952,4.4876966 0 0 1 0.29197,-0.128675 18.031952,4.4876966 0 0 1 15.617133,-2.254642 18.031952,4.4876966 0 0 1 15.38201,2.149739 18.031952,4.4876966 0 0 1 0.17467,0.07493 18.031952,4.4876966 0 0 1 0.96531,0.465605 18.031952,4.4876966 0 0 1 1.34411,1.190625 c 1.73546,-0.916218 3.5171,-2.631731 3.5171,-5.914885 v -1.539441 -4.425053 c 0,-2.80533 1.06193,-4.27647 3.18636,-4.41265 v -0.04082 -2.328541 -0.04082 c -2.12443,-0.13618 -3.18636,-1.606804 -3.18636,-4.412134 v -4.596616 -1.368392 c 0,-3.283433 -1.7815,-4.998866 -3.5171,-5.914885 A 18.031952,4.4876966 0 0 1 129.40761,30.548 h -5.1e-4 a 18.031952,4.4876966 0 0 1 -0.91674,0.482658 18.031952,4.4876966 0 0 1 -0.28009,0.122473 18.031952,4.4876966 0 0 1 -15.58045,2.23759 18.031952,4.4876966 0 0 1 -15.849673,-2.363163 18.031952,4.4876966 0 0 1 -0.34417,-0.155546 18.031952,4.4876966 0 0 1 -0.900723,-0.541053 l -5.2e-4,5.17e-4 a 18.031952,4.4876966 0 0 1 -0.77101,-0.820622 z" />
      <path
         style="font-size:20.6648px;font-family:'Franklin Gothic Demi';-inkscape-font-specification:'Franklin Gothic Demi';fill:#ffffff;stroke-width:2.94842"
         d="m 100.72751,52.81239 v 1.917145 H 99.102978 V 52.82248 q -3.642575,-0.383428 -4.429613,-3.511401 l 2.774814,-0.635685 q 0.474241,1.785972 2.603281,1.785972 1.0292,0 1.53372,-0.39352 0.5146,-0.393519 0.5146,-0.948482 0,-0.565053 -0.45406,-0.87785 -0.45406,-0.312797 -1.775884,-0.575143 -2.865627,-0.595324 -3.703116,-1.594258 -0.8274,-1.009023 -0.8274,-2.351024 0,-1.574077 1.049385,-2.684003 1.049384,-1.120016 2.714273,-1.32182 v -1.594257 h 1.624532 v 1.574076 q 3.10779,0.292617 4.06636,2.976619 l -2.54274,0.84758 q -0.5146,-1.513535 -2.18958,-1.513535 -1.775881,0 -1.775881,1.150287 0,0.46415 0.332978,0.787038 0.332977,0.312797 1.503443,0.544873 1.95751,0.393519 2.86563,0.797128 0.91821,0.40361 1.53371,1.30164 0.6256,0.898031 0.6256,2.007957 0,1.533716 -1.09984,2.774815 -1.09983,1.231008 -3.31968,1.442903 z m 17.68818,3.117883 q -0.58524,0.131173 -1.15029,0.131173 -1.84651,0 -2.47211,-0.797129 -0.62559,-0.787038 -0.72649,-1.987776 -0.77695,0.09081 -1.30164,0.09081 -2.61338,0 -4.17736,-2.038227 -1.5539,-2.048318 -1.5539,-5.004757 0,-2.885807 1.50345,-4.984576 1.50344,-2.108859 4.42961,-2.108859 2.88581,0 4.39934,2.098769 1.51354,2.088679 1.51354,5.024937 0,2.361115 -0.86776,3.935192 -0.85767,1.563986 -2.02814,2.240032 0,1.059474 1.21083,1.059474 0.35316,0 1.22092,-0.100902 z m -5.45882,-14.065787 q -2.54274,0 -2.54274,4.459883 0,4.480065 2.53265,4.480065 2.56292,0 2.56292,-4.419523 0,-4.520425 -2.55283,-4.520425 z m 11.30106,8.62715 h 5.479 V 53.216 H 120.9887 V 39.442829 h 3.26923 z"
         id="text6-9-9"
         transform="scale(1.0037848,0.99622949)"
         aria-label="$QL" />
      <path
         id="path19-8-6-8"
         style="opacity:0.51049;fill:url(#radialGradient21-3-2);stroke-width:5.02542"
         d="m 95.535254,30.330965 -2.627746,2.529562 -0.05271,0.489375 a 23.90324,7.9155612 0 0 0 19.775032,3.468522 23.90324,7.9155612 0 0 0 19.29081,-3.241145 l -0.83562,-2.022616 -1.67793,-1.006657 a 18.031952,4.4876966 0 0 1 -16.77726,2.842721 18.031952,4.4876966 0 0 1 -17.094576,-3.059762 z" />
      <path
         id="text1-1-12"
         style="font-size:41.8348px;font-family:'Segoe UI';-inkscape-font-specification:'Segoe UI';fill:#00a1f2;fill-opacity:1;stroke-width:0.21789"
         d="m 130.49591,29.51086 a 18.031952,4.4876966 0 0 1 -2.62258,1.790072 c 2.30985,0.990107 3.11661,1.607712 3.11661,4.370276 v 1.122929 4.862235 0.122473 c 0,2.87342 1.02118,4.616328 3.06389,5.229138 -2.04271,0.61281 -3.06389,2.356235 -3.06389,5.229655 v 0.122473 4.69067 1.294495 c 0,2.762166 -0.80649,3.379902 -3.11557,4.369759 a 18.031952,4.4876966 0 0 1 2.62154,1.790072 c 1.73546,-0.916218 3.5171,-2.631731 3.5171,-5.914885 v -1.539441 -4.425053 c 0,-2.80533 1.06194,-4.27647 3.18637,-4.41265 v -0.04083 -2.32854 -0.04082 c -2.12443,-0.13618 -3.18637,-1.606804 -3.18637,-4.412134 v -4.596618 -1.368392 c 0,-3.283433 -1.7815,-4.998865 -3.5171,-5.914884 z" />
      <path
         id="text1-1-12-9"
         style="font-size:41.8348px;font-family:'Segoe UI';-inkscape-font-specification:'Segoe UI';fill:#00a1f2;fill-opacity:1;stroke-width:0.21789"
         d="m 94.763725,29.51086 c -1.735599,0.916021 -3.517098,2.631454 -3.517098,5.914885 v 1.368392 4.596618 c 0,2.80533 -1.061939,4.275954 -3.186369,4.412134 v 0.04082 2.32854 0.04083 c 2.12443,0.13618 3.186369,1.60732 3.186369,4.41265 v 4.425053 1.539441 c 0,3.283173 1.781628,4.998671 3.517098,5.914885 A 18.031952,4.4876966 0 0 1 97.38527,62.715036 C 95.076169,61.725174 94.269698,61.10745 94.269698,58.345277 v -1.294495 -4.69067 -0.122473 c 0,-2.87342 -1.021186,-4.616845 -3.063896,-5.229655 2.04271,-0.61281 3.063896,-2.355718 3.063896,-5.229138 v -0.122473 -4.862235 -1.122929 c 0,-2.762562 0.806756,-3.38017 3.116606,-4.370276 A 18.031952,4.4876966 0 0 1 94.763725,29.51086 Z" />
    </g>
  </g>
</svg>
