<?xml version="1.0" encoding="UTF-8" standalone="no"?>
<!-- Created with Inkscape (http://www.inkscape.org/) -->

<svg
   width="128"
   height="96"
   viewBox="0 0 33.866666 25.4"
   version="1.1"
   id="svg1"
   inkscape:version="1.4.3 (0d15f75, 2025-12-25)"
   sodipodi:docname="SQLI_logo.svg"
   xmlns:inkscape="http://www.inkscape.org/namespaces/inkscape"
   xmlns:sodipodi="http://sodipodi.sourceforge.net/DTD/sodipodi-0.dtd"
   xmlns:xlink="http://www.w3.org/1999/xlink"
   xmlns="http://www.w3.org/2000/svg"
   xmlns:svg="http://www.w3.org/2000/svg">
  <sodipodi:namedview
     id="namedview1"
     pagecolor="#ffffff"
     bordercolor="#000000"
     borderopacity="0.25"
     inkscape:showpageshadow="2"
     inkscape:pageopacity="0.0"
     inkscape:pagecheckerboard="0"
     inkscape:deskcolor="#d1d1d1"
     inkscape:document-units="mm"
     inkscape:zoom="3.0564116"
     inkscape:cx="170.62492"
     inkscape:cy="156.55614"
     inkscape:window-width="2560"
     inkscape:window-height="1494"
     inkscape:window-x="-11"
     inkscape:window-y="-11"
     inkscape:window-maximized="1"
     inkscape:current-layer="layer1" />
  <defs
     id="defs1">
    <linearGradient
       inkscape:collect="always"
       xlink:href="#linearGradient9"
       id="linearGradient10"
       gradientUnits="userSpaceOnUse"
       x1="112.62984"
       y1="47.007736"
       x2="112.62984"
       y2="42.603806" />
    <linearGradient
       id="linearGradient9"
       inkscape:collect="always">
      <stop
         style="stop-color:#000000;stop-opacity:1;"
         offset="0"
         id="stop9" />
      <stop
         style="stop-color:#000000;stop-opacity:0;"
         offset="1"
         id="stop10" />
    </linearGradient>
    <linearGradient
       inkscape:collect="always"
       xlink:href="#linearGradient15"
       id="linearGradient11"
       gradientUnits="userSpaceOnUse"
       x1="112.62984"
       y1="47.007736"
       x2="112.62984"
       y2="51.411674" />
    <linearGradient
       id="linearGradient15"
       inkscape:collect="always">
      <stop
         style="stop-color:#ffffff;stop-opacity:1;"
         offset="0"
         id="stop14" />
      <stop
         style="stop-color:#ffffff;stop-opacity:0;"
         offset="1"
         id="stop15" />
    </linearGradient>
    <radialGradient
       inkscape:collect="always"
       xlink:href="#linearGradient24"
       id="radialGradient21-3-7-7"
       cx="112.62984"
       cy="28.903465"
       fx="112.62984"
       fy="28.903465"
       r="21.42416"
       gradientTransform="matrix(1.1157142,0,0,0.36946892,-13.032862,54.433085)"
       gradientUnits="userSpaceOnUse" />
    <linearGradient
       id="linearGradient24"
       inkscape:collect="always">
      <stop
         style="stop-color:#ffffff;stop-opacity:1;"
         offset="0.71309769"
         id="stop23" />
      <stop
         style="stop-color:#ffffff;stop-opacity:0;"
         offset="1"
         id="stop24" />
    </linearGradient>
    <linearGradient
       inkscape:collect="always"
       xlink:href="#linearGradient27"
       id="linearGradient12"
       gradientUnits="userSpaceOnUse"
       gradientTransform="translate(6.6454183,-28.016188)"
       x1="127.40859"
       y1="75.023918"
       x2="84.560394"
       y2="75.539375" />
    <linearGradient
       id="linearGradient27"
       inkscape:collect="always">
      <stop
         style="stop-color:#dce6f0;stop-opacity:1;"
         offset="0"
         id="stop27" />
      <stop
         style="stop-color:#000000;stop-opacity:1;"
         offset="0.40228692"
         id="stop29" />
      <stop
         style="stop-color:#000000;stop-opacity:1;"
         offset="0.60031188"
         id="stop30" />
      <stop
         style="stop-color:#dce6f0;stop-opacity:1;"
         offset="1"
         id="stop28" />
    </linearGradient>
    <radialGradient
       inkscape:collect="always"
       xlink:href="#linearGradient20"
       id="radialGradient21-3-2-6-2"
       cx="112.62984"
       cy="28.903465"
       fx="112.62984"
       fy="28.903465"
       r="21.42416"
       gradientTransform="matrix(1.1157142,0,0,0.36946892,-13.032862,18.223973)"
       gradientUnits="userSpaceOnUse" />
    <linearGradient
       id="linearGradient20"
       inkscape:collect="always">
      <stop
         style="stop-color:#000000;stop-opacity:1;"
         offset="0.71309769"
         id="stop20" />
      <stop
         style="stop-color:#000000;stop-opacity:0;"
         offset="1"
         id="stop21" />
    </linearGradient>
  </defs>
  <g
     inkscape:label="Layer 1"
     inkscape:groupmode="layer"
     id="layer1">
    <g
       id="g23-6-7"
       transform="matrix(0.68919959,0,0,0.69177371,-60.69109,-19.81888)"
       inkscape:export-filename="SqlInterpol.png"
       inkscape:export-xdpi="96"
       inkscape:export-ydpi="96">
      <g
         id="g34-0-6"
         inkscape:export-filename="SqlInterpol.svg"
         inkscape:export-xdpi="96"
         inkscape:export-ydpi="96">
        <path
           id="rect6-3-5-5-1"
           style="opacity:1;fill:none;fill-opacity:1;stroke:#48c2ff;stroke-width:0.989934;stroke-dasharray:none;stroke-opacity:1"
           d="m 95.123797,29.508545 c -1.700618,0.916138 -3.446216,2.631789 -3.446216,5.915638 v 1.368565 4.597202 c 0,2.805687 -1.040537,4.276499 -3.122149,4.412695 v 0.04083 2.328834 0.04083 c 2.081612,0.136196 3.122149,1.607524 3.122149,4.413211 v 4.425614 1.539637 c 0,3.28359 1.745724,4.999307 3.446216,5.915638 a 17.668533,4.4882671 0 0 1 1.021814,-1.008852 h 5.1e-4 a 17.668533,4.4882671 0 0 1 0.895227,-0.488921 17.668533,4.4882671 0 0 1 0.286083,-0.128693 17.668533,4.4882671 0 0 1 15.302379,-2.254927 17.668533,4.4882671 0 0 1 15.07199,2.150011 17.668533,4.4882671 0 0 1 0.17116,0.07494 17.668533,4.4882671 0 0 1 0.94587,0.465664 17.668533,4.4882671 0 0 1 1.317,1.190777 c 1.70049,-0.916335 3.44622,-2.632067 3.44622,-5.915638 v -1.539637 -4.425614 c 0,-2.805687 1.04053,-4.277015 3.12214,-4.413211 v -0.04083 -2.328835 -0.04083 c -2.08161,-0.136196 -3.12214,-1.607008 -3.12214,-4.412695 v -4.597202 -1.368565 c 0,-3.283851 -1.74559,-4.999502 -3.44622,-5.915638 a 17.668533,4.4882671 0 0 1 -1.06638,1.037278 h -5e-4 a 17.668533,4.4882671 0 0 1 -0.89826,0.48272 17.668533,4.4882671 0 0 1 -0.27443,0.122487 17.668533,4.4882671 0 0 1 -15.26645,2.237875 17.668533,4.4882671 0 0 1 -15.530232,-2.363462 17.668533,4.4882671 0 0 1 -0.337234,-0.155567 17.668533,4.4882671 0 0 1 -0.882566,-0.541121 l -5.1e-4,5.16e-4 a 17.668533,4.4882671 0 0 1 -0.755471,-0.820726 z" />
        <path
           id="rect6-2-8"
           style="fill:#003074;fill-opacity:1;stroke-width:2.9569"
           d="m 95.535254,30.330965 -2.627747,2.529562 -0.519348,4.839497 -0.454236,7.10551 -0.728121,-0.08372 v 5.602759 l 1.290878,0.01395 0.226859,8.007264 0.551905,3.116605 2.531111,2.033985 h 5.17e-4 a 18.031952,4.4876966 0 0 1 16.822748,-2.872176 18.031952,4.4876966 0 0 1 16.52199,2.690275 l 2.2133,-1.289327 0.90899,-3.41943 -0.0434,-8.180896 1.82314,-2.056205 v -3.56309 l -1.51773,-8.508525 0.71933,-0.543119 -1.00717,-1.383378 -1.16324,-2.815849 L 129.4071,30.548 a 18.031952,4.4876966 0 0 1 -16.77727,2.842721 18.031952,4.4876966 0 0 1 -17.094566,-3.059762 z" />
        <rect
           style="opacity:0.5338;fill:url(#linearGradient10);fill-opacity:1;stroke:none;stroke-width:6.25284;stroke-dasharray:none"
           id="rect7-4-9"
           width="42.848309"
           height="4.4039326"
           x="91.205688"
           y="42.603806" />
        <rect
           style="opacity:0.5338;fill:url(#linearGradient11);fill-opacity:1;stroke:none;stroke-width:6.25284;stroke-dasharray:none"
           id="rect7-8-8-2"
           width="42.848309"
           height="4.4039326"
           x="91.205688"
           y="47.00774" />
        <path
           id="path19-8-6-6-7"
           style="opacity:0.51049;fill:url(#radialGradient21-3-7-7);stroke-width:5.02542"
           d="m 112.62982,57.196509 a 23.90324,7.9155612 0 0 0 -19.517157,3.345532 l 0.162781,0.920357 2.531111,2.033985 h 5.17e-4 a 18.031952,4.4876966 0 0 1 16.822748,-2.872176 18.031952,4.4876966 0 0 1 16.52199,2.690275 l 2.2133,-1.289327 0.43615,-1.641244 a 23.90324,7.9155612 0 0 0 -19.17144,-3.187402 z" />
        <path
           id="rect6-3-5-9"
           style="opacity:0.550117;fill:url(#linearGradient12);fill-opacity:1;stroke-width:2.9569"
           d="m 94.763724,29.510854 c -1.7356,0.916021 -3.5171,2.631454 -3.5171,5.914885 v 1.368392 4.596618 c 0,2.80533 -1.06194,4.275954 -3.18637,4.412134 v 0.04082 2.32854 0.04082 c 2.12443,0.13618 3.18637,1.60732 3.18637,4.41265 v 4.425053 1.539441 c 0,3.283173 1.78163,4.998671 3.5171,5.914885 a 18.031952,4.4876966 0 0 1 1.04283,-1.008724 h 5.2e-4 a 18.031952,4.4876966 0 0 1 0.913643,-0.488859 18.031952,4.4876966 0 0 1 0.29197,-0.128675 18.031952,4.4876966 0 0 1 15.617133,-2.254642 18.031952,4.4876966 0 0 1 15.38201,2.149739 18.031952,4.4876966 0 0 1 0.17467,0.07493 18.031952,4.4876966 0 0 1 0.96531,0.465605 18.031952,4.4876966 0 0 1 1.34411,1.190625 c 1.73546,-0.916218 3.5171,-2.631731 3.5171,-5.914885 v -1.539441 -4.425053 c 0,-2.80533 1.06193,-4.27647 3.18636,-4.41265 v -0.04082 -2.328541 -0.04082 c -2.12443,-0.13618 -3.18636,-1.606804 -3.18636,-4.412134 v -4.596616 -1.368392 c 0,-3.283433 -1.7815,-4.998866 -3.5171,-5.914885 A 18.031952,4.4876966 0 0 1 129.40761,30.548 h -5.1e-4 a 18.031952,4.4876966 0 0 1 -0.91674,0.482658 18.031952,4.4876966 0 0 1 -0.28009,0.122473 18.031952,4.4876966 0 0 1 -15.58045,2.23759 18.031952,4.4876966 0 0 1 -15.849673,-2.363163 18.031952,4.4876966 0 0 1 -0.34417,-0.155546 18.031952,4.4876966 0 0 1 -0.900723,-0.541053 l -5.2e-4,5.17e-4 a 18.031952,4.4876966 0 0 1 -0.77101,-0.820622 z" />
        <path
           d="m 103.54663,40.708883 c 0,-1.693332 -0.80433,-2.709331 -2.32833,-2.793998 V 36.05222 h -0.508 v 1.862665 c -1.524,0.08467 -2.328333,1.100666 -2.328333,2.793998 v 1.862665 c 0,2.412999 0.423333,3.259665 2.328333,4.783663 1.69333,1.354666 1.98966,1.989666 1.98966,4.148664 v 2.031998 c 0,1.396999 -0.71966,1.947332 -1.73566,1.947332 -1.016001,0 -1.735667,-0.550333 -1.735667,-1.947332 v -3.513664 h -0.846666 v 3.386665 c 0,1.693332 0.804333,2.709331 2.328333,2.793997 v 1.862666 h 0.508 v -1.862666 c 1.524,-0.08467 2.32833,-1.100665 2.32833,-2.793997 v -1.904999 c 0,-2.412998 -0.381,-3.259664 -2.32833,-4.783663 -1.693334,-1.354666 -1.989667,-1.989665 -1.989667,-4.148664 v -1.989665 c 0,-1.396999 0.719666,-1.947332 1.735667,-1.947332 1.016,0 1.73566,0.550333 1.73566,1.947332 v 3.513664 h 0.84667 z m 7.3104,17.610653 v -2.158998 c 1.397,-0.169333 2.159,-1.142999 2.159,-2.751664 V 40.708883 c 0,-1.777999 -0.889,-2.793998 -2.58233,-2.793998 -1.69333,0 -2.58233,1.015999 -2.58233,2.793998 v 12.699991 c 0,1.608665 0.762,2.582331 2.15899,2.751664 v 2.158998 z m -0.42333,-2.836331 c -1.016,0 -1.73567,-0.550333 -1.73567,-1.947332 v -12.95399 c 0,-1.396999 0.71967,-1.947332 1.73567,-1.947332 1.016,0 1.73566,0.550333 1.73566,1.947332 v 12.95399 c 0,1.396999 -0.71966,1.947332 -1.73566,1.947332 z m 11.0358,0.465667 v -0.719667 h -3.683 v -17.06032 h -0.84666 v 17.779987 z m 4.55882,0 V 38.168885 h -0.84667 v 17.779987 z"
           id="text6-9-9-0-5"
           style="font-weight:100;font-size:42.3333px;font-family:'Aeternus Nano';-inkscape-font-specification:'Aeternus Nano Thin';letter-spacing:2.01877px;fill:#ffffff;stroke:#ffffff;stroke-width:2.148"
           transform="scale(1.0037848,0.99622948)"
           aria-label="$QLI" />
        <path
           id="path19-8-6-8-0-3"
           style="opacity:0.51049;fill:url(#radialGradient21-3-2-6-2);stroke-width:5.02542"
           d="m 95.535254,30.330965 -2.627746,2.529562 -0.05271,0.489375 a 23.90324,7.9155612 0 0 0 19.775032,3.468522 23.90324,7.9155612 0 0 0 19.29081,-3.241145 l -0.83562,-2.022616 -1.67793,-1.006657 a 18.031952,4.4876966 0 0 1 -16.77726,2.842721 18.031952,4.4876966 0 0 1 -17.094576,-3.059762 z" />
        <path
           id="text1-1-12-0-1"
           style="font-size:41.8348px;font-family:'Segoe UI';-inkscape-font-specification:'Segoe UI';fill:#48c2ff;fill-opacity:1;stroke-width:0.219154"
           d="m 130.49591,29.307241 a 18.031952,4.5399195 0 0 1 -2.62258,1.810903 c 2.30985,1.001628 3.11661,1.626421 3.11661,4.421133 v 1.135996 4.918817 0.123898 c 0,2.906857 1.02118,4.670047 3.06389,5.289988 -2.04271,0.619941 -3.06389,2.383655 -3.06389,5.290513 v 0.123897 4.745256 1.309558 c 0,2.794309 -0.80649,3.419234 -3.11557,4.42061 a 18.031952,4.5399195 0 0 1 2.62154,1.810903 c 1.73546,-0.92688 3.5171,-2.662356 3.5171,-5.983716 v -1.557355 -4.476547 c 0,-2.837975 1.06194,-4.326235 3.18637,-4.464 v -0.04131 -2.355637 -0.0413 c -2.12443,-0.137765 -3.18637,-1.625503 -3.18637,-4.463478 v -4.650108 -1.384316 c 0,-3.321642 -1.7815,-5.057037 -3.5171,-5.983715 z" />
        <path
           id="text1-1-12-9-6-2"
           style="font-size:41.8348px;font-family:'Segoe UI';-inkscape-font-specification:'Segoe UI';fill:#48c2ff;fill-opacity:1;stroke-width:0.219154"
           d="m 94.763725,29.307231 c -1.735599,0.926681 -3.517098,2.662076 -3.517098,5.983716 v 1.384316 4.650108 c 0,2.837975 -1.061939,4.325713 -3.186369,4.463478 v 0.0413 2.355637 0.04131 c 2.12443,0.137765 3.186369,1.626025 3.186369,4.464 v 4.476547 1.557355 c 0,3.321379 1.781628,5.05684 3.517098,5.983716 A 18.031952,4.5399195 0 0 1 97.38527,62.897811 C 95.076169,61.89643 94.269698,61.271517 94.269698,58.477201 V 57.167643 52.422387 52.29849 c 0,-2.906858 -1.021186,-4.670572 -3.063896,-5.290513 2.04271,-0.619941 3.063896,-2.383131 3.063896,-5.289988 v -0.123898 -4.918817 -1.135996 c 0,-2.79471 0.806756,-3.419506 3.116606,-4.421133 a 18.031952,4.5399195 0 0 1 -2.622579,-1.810914 z" />
      </g>
    </g>
  </g>
</svg>
